# xmcd CD database file
#
# Track frame offsets:
#	150
#	25087
#	39450
#	56375
#	71987
#	95450
#	110455
#	127787
#	155530
#
# Disc length: 2263 seconds
#
# Revision: 0
# Processed by: cddbd v1.5.1PL0 Copyright (c) Steve Scherf et al.
# Submitted via: CDex 1.51
#
DISCID=6e08d509
DTITLE=南條晃司 - BRONZE
DYEAR=1993
DGENRE=Anime
TTITLE0=Albinoid Junction
TTITLE1=夢の棘
TTITLE2=Endless Desire
TTITLE3=静止画〜STILL LIFE〜
TTITLE4=BRIDGE
TTITLE5=GIANT STEP
TTITLE6=BRONZE
TTITLE7=哀幻夜
TTITLE8=Epilogue
EXTD=YEAR: 1993
EXTT0=
EXTT1=
EXTT2=
EXTT3=
EXTT4=
EXTT5=
EXTT6=
EXTT7=
EXTT8=
PLAYORDER=
